<?xml version="1.0" standalone="no"?>
<!DOCTYPE svg PUBLIC "-//W3C//DTD SVG 20010904//EN"
 "http://www.w3.org/TR/2001/REC-SVG-20010904/DTD/svg10.dtd">
<svg version="1.0" xmlns="http://www.w3.org/2000/svg"
 width="465.000000pt" height="470.000000pt" viewBox="0 0 465.000000 470.000000"
 preserveAspectRatio="xMidYMid meet">

<g transform="translate(0.000000,470.000000) scale(0.100000,-0.100000)"
fill="#000000" stroke="none">
<path d="M1475 4610 c-27 -3 -61 -12 -73 -19 -30 -16 -52 -68 -52 -120 0 -36
-3 -40 -36 -51 -20 -7 -52 -26 -71 -43 -51 -45 -73 -98 -73 -182 l0 -70 -78
-27 c-98 -35 -181 -99 -213 -165 -22 -44 -24 -62 -27 -234 l-4 -186 -68 1
c-59 1 -72 -2 -93 -22 -26 -24 -53 -102 -36 -102 16 0 109 50 179 95 91 58
216 171 275 248 53 70 68 81 95 72 51 -16 24 -69 -98 -197 -136 -142 -285
-242 -462 -308 l-95 -36 -12 -45 c-6 -24 -12 -102 -11 -173 0 -137 1 -136 -51
-165 -19 -11 8 -61 56 -100 81 -67 226 -80 328 -31 l48 23 19 -22 c24 -30 23
-36 -8 -60 -39 -31 -118 -51 -200 -51 l-73 0 -10 -37 c-42 -155 -45 -182 -46
-333 0 -85 -4 -161 -8 -167 -13 -20 -45 -15 -58 10 -33 60 -18 337 26 482 20
67 19 71 -15 85 -16 7 -50 34 -76 62 -25 27 -49 46 -52 43 -4 -4 -8 -55 -10
-115 l-4 -109 -37 -24 c-20 -14 -46 -44 -59 -70 -22 -44 -23 -55 -20 -224 3
-169 4 -180 27 -214 14 -19 39 -45 58 -57 l33 -22 1 -108 c0 -87 2 -103 12
-87 7 10 34 43 61 72 86 93 196 133 423 152 149 13 214 27 273 56 113 57 163
160 176 361 4 57 5 104 3 104 -2 0 -40 -7 -84 -15 -158 -28 -243 -17 -233 31
5 26 24 31 148 42 221 20 407 103 564 251 62 60 156 193 195 278 l24 52 -24
53 c-23 52 -24 60 -24 333 0 270 -1 282 -22 326 -16 31 -34 51 -58 62 -64 31
-35 102 32 76 76 -29 127 -125 134 -257 2 -24 6 -45 10 -48 10 -6 84 81 124
146 35 58 68 151 82 235 8 48 9 50 41 50 l32 0 0 107 c0 59 -5 130 -11 158
-23 107 -113 193 -231 218 -29 6 -136 12 -238 13 l-185 2 -17 -57 c-36 -117
-51 -213 -52 -332 l-1 -120 40 -85 c38 -81 40 -88 40 -185 0 -98 -1 -103 -42
-185 -23 -46 -65 -112 -93 -146 l-51 -63 20 -38 c78 -152 24 -356 -137 -523
-43 -43 -85 -79 -94 -79 -17 0 -48 25 -48 40 0 5 28 37 63 72 124 126 172 227
165 348 -3 41 -10 85 -17 98 -12 22 -13 21 -94 -46 -82 -69 -273 -209 -314
-231 -26 -13 -50 -6 -58 19 -9 30 3 43 119 122 244 168 394 316 464 457 33 68
37 83 37 155 0 105 -28 167 -119 263 -67 71 -76 89 -54 111 18 18 39 15 65
-10 l23 -21 0 51 c0 73 18 193 45 296 13 50 23 91 22 91 -1 0 -24 -2 -52 -5z"/>
<path d="M2460 4326 l0 -243 93 -7 c562 -42 1028 -427 1232 -1017 l36 -106 74
20 73 20 -15 51 c-67 230 -201 484 -353 671 -221 270 -557 457 -885 490 -33 3
-75 8 -92 11 l-33 5 0 106 0 106 83 -7 c381 -32 733 -203 970 -471 441 -498
638 -1406 481 -2218 -129 -664 -457 -1154 -915 -1366 -162 -74 -395 -134 -559
-142 l-55 -3 0 84 0 85 100 12 c350 43 625 178 855 419 249 262 410 618 487
1079 25 154 26 622 0 770 -26 153 -39 205 -50 205 -10 0 -129 -31 -135 -35 -1
-1 6 -51 17 -111 33 -185 44 -345 37 -529 -9 -243 -1 -225 -103 -225 l-84 0 8
53 c15 96 8 453 -11 577 -50 333 -146 623 -265 798 -190 280 -555 488 -893
509 l-98 6 0 -65 c0 -44 4 -67 13 -70 6 -3 41 -6 77 -7 129 -3 232 -31 370
-101 62 -31 219 -139 220 -151 0 -6 -133 -99 -143 -99 -4 0 -27 13 -53 30
-100 63 -228 100 -376 109 l-108 6 0 -256 0 -256 86 -6 c72 -4 98 -11 159 -41
176 -87 296 -300 324 -574 5 -46 11 -85 13 -88 3 -2 37 -1 77 2 l71 7 0 37 c0
52 -27 202 -50 280 -11 35 -18 65 -16 67 6 6 121 42 124 38 2 -2 10 -28 18
-58 28 -107 44 -253 44 -399 0 -558 -237 -983 -608 -1089 -117 -33 -112 -38
-112 96 l0 115 28 6 c149 33 231 75 320 165 134 134 219 330 247 572 l7 59
-39 -6 c-21 -3 -56 -5 -79 -6 l-41 0 -6 -57 c-10 -96 -45 -213 -89 -303 -70
-141 -203 -259 -312 -277 l-36 -6 0 102 0 102 38 15 c117 46 188 110 237 216
107 234 75 533 -74 691 -66 70 -135 107 -209 113 -31 3 -72 7 -89 9 l-33 4 0
-890 0 -889 23 0 c12 0 66 5 120 10 172 17 324 80 456 190 l57 47 52 -48 c29
-26 52 -52 52 -57 0 -13 -101 -99 -175 -149 -151 -101 -349 -174 -492 -181
l-93 -4 0 -401 0 -400 118 7 c310 19 532 72 746 178 307 153 556 421 736 792
140 286 226 606 260 968 16 163 8 571 -15 728 -62 444 -215 851 -437 1165 -74
106 -244 280 -343 353 -258 190 -620 302 -975 302 l-90 0 0 -244z m862 -1001
c211 -328 315 -960 233 -1415 -18 -96 -59 -244 -85 -306 l-18 -41 65 -32 c39
-19 70 -28 75 -23 15 15 75 194 94 280 l17 82 84 0 c73 0 83 -2 83 -18 0 -10
-13 -71 -29 -137 -162 -660 -554 -1071 -1110 -1161 -48 -8 -99 -14 -114 -14
l-28 0 3 97 3 97 35 9 c349 89 566 211 747 419 56 64 168 226 162 232 -6 5
-128 66 -133 66 -2 0 -23 -31 -46 -69 -23 -39 -47 -74 -53 -79 -8 -7 -29 5
-66 39 l-54 48 45 68 c106 159 183 367 220 598 18 117 16 427 -5 549 -51 292
-158 525 -321 700 -20 21 -34 41 -32 43 2 2 32 24 67 49 l63 44 23 -22 c13
-12 47 -58 75 -103z m-587 73 c180 -59 345 -218 445 -430 17 -35 30 -67 30
-73 0 -5 -31 -19 -69 -31 l-68 -21 -28 51 c-16 28 -65 87 -109 131 -91 90
-173 138 -279 159 l-62 13 -3 117 -3 118 43 -7 c24 -4 70 -16 103 -27z m-99
-730 c38 -26 87 -96 111 -158 13 -35 17 -77 18 -185 0 -129 -2 -145 -26 -202
-15 -34 -39 -78 -55 -96 -26 -31 -73 -67 -88 -67 -3 0 -6 164 -6 365 0 201 3
365 7 365 4 0 21 -10 39 -22z"/>
<path d="M2267 3950 c-5 -19 -27 -73 -49 -119 -33 -69 -57 -101 -132 -178
l-93 -94 -6 -127 c-9 -177 10 -244 79 -277 33 -16 39 -16 78 -1 23 9 63 38 89
64 l47 48 -2 359 c-2 221 -6 346 -11 325z"/>
<path d="M2231 3109 c-66 -44 -113 -55 -168 -41 -25 7 -47 11 -48 10 -1 -2
-15 -28 -30 -58 -107 -214 -329 -415 -527 -479 l-38 -13 0 -86 c-1 -125 -23
-234 -65 -320 l-36 -73 27 -47 c15 -25 59 -78 98 -117 78 -78 161 -126 252
-146 65 -15 83 -36 56 -69 -17 -21 -21 -22 -75 -10 -145 30 -303 149 -407 308
l-15 23 -60 -29 c-73 -36 -125 -47 -320 -67 -235 -23 -326 -64 -393 -175 -50
-84 -51 -97 -9 -135 44 -40 57 -85 57 -192 l0 -83 38 38 c49 49 101 73 171 79
73 7 156 -14 329 -84 279 -111 406 -132 567 -94 244 58 377 199 442 466 23 98
23 348 -1 469 -37 187 -102 347 -158 387 -30 22 -36 47 -16 67 43 43 124 -38
183 -185 l23 -55 53 55 c30 30 69 79 87 109 l32 55 -2 261 -3 261 -44 -30z"/>
<path d="M2203 2380 c-70 -67 -72 -70 -63 -102 6 -18 17 -81 25 -140 53 -382
-45 -702 -266 -864 -41 -30 -49 -42 -58 -85 -16 -71 -14 -185 4 -254 47 -181
150 -273 331 -297 56 -8 88 -8 94 -2 7 7 9 327 8 911 l-3 901 -72 -68z"/>
<path d="M685 1331 c-42 -19 -94 -71 -120 -121 -9 -17 -21 -30 -27 -30 -15 0
-3 -84 17 -114 27 -41 88 -59 209 -61 104 -2 110 -3 132 -28 15 -18 25 -46 29
-84 10 -88 23 -130 49 -160 l24 -28 139 0 c162 1 257 22 391 85 66 32 88 38
103 30 27 -15 24 -54 -5 -74 -71 -46 -231 -97 -378 -121 l-38 -6 0 -66 c0 -62
2 -67 38 -103 44 -44 106 -65 225 -75 62 -5 80 -11 92 -27 14 -21 15 -21 67
20 29 22 62 51 73 64 49 57 105 152 125 213 l22 67 -35 68 c-49 95 -70 196
-65 317 l3 98 -85 -22 c-103 -27 -221 -29 -328 -7 -42 8 -162 48 -267 88 -260
100 -316 111 -390 77z"/>
<path d="M1912 628 c-28 -108 -159 -282 -262 -348 l-49 -32 23 -46 c55 -107
130 -145 297 -150 183 -6 288 29 332 112 19 37 22 60 25 214 l4 172 -54 0
c-78 0 -174 26 -246 66 l-64 35 -6 -23z"/>
</g>
</svg>
